<svg width="256" height="84" viewBox="0 0 256 84" fill="none" xmlns="http://www.w3.org/2000/svg">
<path d="M7.164 20.288C7.164 20.776 7.052 21.224 6.828 21.632C6.604 22.032 6.26 22.356 5.796 22.604C5.332 22.852 4.756 22.976 4.068 22.976H2.796V26H0.744V17.576H4.068C4.74 17.576 5.308 17.692 5.772 17.924C6.236 18.156 6.584 18.476 6.816 18.884C7.048 19.292 7.164 19.76 7.164 20.288ZM3.912 21.344C4.304 21.344 4.596 21.252 4.788 21.068C4.98 20.884 5.076 20.624 5.076 20.288C5.076 19.952 4.98 19.692 4.788 19.508C4.596 19.324 4.304 19.232 3.912 19.232H2.796V21.344H3.912ZM12.5283 26L10.7763 22.82H10.2843V26H8.23228V17.576H11.6763C12.3403 17.576 12.9043 17.692 13.3683 17.924C13.8403 18.156 14.1923 18.476 14.4243 18.884C14.6563 19.284 14.7723 19.732 14.7723 20.228C14.7723 20.788 14.6123 21.288 14.2923 21.728C13.9803 22.168 13.5163 22.48 12.9003 22.664L14.8443 26H12.5283ZM10.2843 21.368H11.5563C11.9323 21.368 12.2123 21.276 12.3963 21.092C12.5883 20.908 12.6843 20.648 12.6843 20.312C12.6843 19.992 12.5883 19.74 12.3963 19.556C12.2123 19.372 11.9323 19.28 11.5563 19.28H10.2843V21.368ZM18.1124 17.576V26H16.0604V17.576H18.1124ZM19.2515 21.776C19.2515 20.944 19.4315 20.204 19.7915 19.556C20.1515 18.9 20.6515 18.392 21.2915 18.032C21.9395 17.664 22.6715 17.48 23.4875 17.48C24.4875 17.48 25.3435 17.744 26.0555 18.272C26.7675 18.8 27.2435 19.52 27.4835 20.432H25.2275C25.0595 20.08 24.8195 19.812 24.5075 19.628C24.2035 19.444 23.8555 19.352 23.4635 19.352C22.8315 19.352 22.3195 19.572 21.9275 20.012C21.5355 20.452 21.3395 21.04 21.3395 21.776C21.3395 22.512 21.5355 23.1 21.9275 23.54C22.3195 23.98 22.8315 24.2 23.4635 24.2C23.8555 24.2 24.2035 24.108 24.5075 23.924C24.8195 23.74 25.0595 23.472 25.2275 23.12H27.4835C27.2435 24.032 26.7675 24.752 26.0555 25.28C25.3435 25.8 24.4875 26.06 23.4875 26.06C22.6715 26.06 21.9395 25.88 21.2915 25.52C20.6515 25.152 20.1515 24.644 19.7915 23.996C19.4315 23.348 19.2515 22.608 19.2515 21.776ZM30.7921 19.22V20.924H33.5401V22.508H30.7921V24.356H33.9001V26H28.7401V17.576H33.9001V19.22H30.7921ZM42.0713 26L40.3193 22.82H39.8273V26H37.7753V17.576H41.2193C41.8833 17.576 42.4473 17.692 42.9113 17.924C43.3833 18.156 43.7353 18.476 43.9673 18.884C44.1993 19.284 44.3153 19.732 44.3153 20.228C44.3153 20.788 44.1553 21.288 43.8353 21.728C43.5233 22.168 43.0593 22.48 42.4433 22.664L44.3873 26H42.0713ZM39.8273 21.368H41.0993C41.4753 21.368 41.7553 21.276 41.9393 21.092C42.1313 20.908 42.2273 20.648 42.2273 20.312C42.2273 19.992 42.1313 19.74 41.9393 19.556C41.7553 19.372 41.4753 19.28 41.0993 19.28H39.8273V21.368ZM50.8474 24.512H47.7034L47.1994 26H45.0514L48.0994 17.576H50.4754L53.5234 26H51.3514L50.8474 24.512ZM50.3194 22.928L49.2754 19.844L48.2434 22.928H50.3194ZM61.987 26H59.935L56.503 20.804V26H54.451V17.576H56.503L59.935 22.796V17.576H61.987V26ZM69.0665 20.24C68.9145 19.96 68.6945 19.748 68.4065 19.604C68.1265 19.452 67.7945 19.376 67.4105 19.376C66.7465 19.376 66.2145 19.596 65.8145 20.036C65.4145 20.468 65.2145 21.048 65.2145 21.776C65.2145 22.552 65.4225 23.16 65.8385 23.6C66.2625 24.032 66.8425 24.248 67.5785 24.248C68.0825 24.248 68.5065 24.12 68.8505 23.864C69.2025 23.608 69.4585 23.24 69.6185 22.76H67.0145V21.248H71.4785V23.156C71.3265 23.668 71.0665 24.144 70.6985 24.584C70.3385 25.024 69.8785 25.38 69.3185 25.652C68.7585 25.924 68.1265 26.06 67.4225 26.06C66.5905 26.06 65.8465 25.88 65.1905 25.52C64.5425 25.152 64.0345 24.644 63.6665 23.996C63.3065 23.348 63.1265 22.608 63.1265 21.776C63.1265 20.944 63.3065 20.204 63.6665 19.556C64.0345 18.9 64.5425 18.392 65.1905 18.032C65.8385 17.664 66.5785 17.48 67.4105 17.48C68.4185 17.48 69.2665 17.724 69.9545 18.212C70.6505 18.7 71.1105 19.376 71.3345 20.24H69.0665ZM74.6671 19.22V20.924H77.4151V22.508H74.6671V24.356H77.7751V26H72.6151V17.576H77.7751V19.22H74.6671Z" fill="#B1B5C4"/>
<path d="M0.84 71.764C0.84 70.1493 1.11067 68.8893 1.652 67.984C2.20267 67.0693 3.14533 66.612 4.48 66.612C5.81467 66.612 6.75267 67.0693 7.294 67.984C7.84467 68.8893 8.12 70.1493 8.12 71.764C8.12 73.3973 7.84467 74.676 7.294 75.6C6.75267 76.5147 5.81467 76.972 4.48 76.972C3.14533 76.972 2.20267 76.5147 1.652 75.6C1.11067 74.676 0.84 73.3973 0.84 71.764ZM6.552 71.764C6.552 71.008 6.50067 70.3687 6.398 69.846C6.30467 69.3233 6.10867 68.8987 5.81 68.572C5.51133 68.236 5.068 68.068 4.48 68.068C3.892 68.068 3.44867 68.236 3.15 68.572C2.85133 68.8987 2.65067 69.3233 2.548 69.846C2.45467 70.3687 2.408 71.008 2.408 71.764C2.408 72.548 2.45467 73.206 2.548 73.738C2.64133 74.27 2.83733 74.6993 3.136 75.026C3.444 75.3527 3.892 75.516 4.48 75.516C5.068 75.516 5.51133 75.3527 5.81 75.026C6.118 74.6993 6.31867 74.27 6.412 73.738C6.50533 73.206 6.552 72.548 6.552 71.764ZM10.6628 77.098C10.3734 77.098 10.1308 77 9.93475 76.804C9.73875 76.608 9.64075 76.3653 9.64075 76.076C9.64075 75.7867 9.73875 75.544 9.93475 75.348C10.1308 75.152 10.3734 75.054 10.6628 75.054C10.9428 75.054 11.1808 75.152 11.3768 75.348C11.5728 75.544 11.6708 75.7867 11.6708 76.076C11.6708 76.3653 11.5728 76.608 11.3768 76.804C11.1808 77 10.9428 77.098 10.6628 77.098ZM13.1857 71.764C13.1857 70.1493 13.4564 68.8893 13.9977 67.984C14.5484 67.0693 15.491 66.612 16.8257 66.612C18.1604 66.612 19.0984 67.0693 19.6397 67.984C20.1904 68.8893 20.4657 70.1493 20.4657 71.764C20.4657 73.3973 20.1904 74.676 19.6397 75.6C19.0984 76.5147 18.1604 76.972 16.8257 76.972C15.491 76.972 14.5484 76.5147 13.9977 75.6C13.4564 74.676 13.1857 73.3973 13.1857 71.764ZM18.8977 71.764C18.8977 71.008 18.8464 70.3687 18.7437 69.846C18.6504 69.3233 18.4544 68.8987 18.1557 68.572C17.857 68.236 17.4137 68.068 16.8257 68.068C16.2377 68.068 15.7944 68.236 15.4957 68.572C15.197 68.8987 14.9964 69.3233 14.8937 69.846C14.8004 70.3687 14.7537 71.008 14.7537 71.764C14.7537 72.548 14.8004 73.206 14.8937 73.738C14.987 74.27 15.183 74.6993 15.4817 75.026C15.7897 75.3527 16.2377 75.516 16.8257 75.516C17.4137 75.516 17.857 75.3527 18.1557 75.026C18.4637 74.6993 18.6644 74.27 18.7577 73.738C18.851 73.206 18.8977 72.548 18.8977 71.764ZM21.9445 68.25V66.794H24.8565V77H23.2465V68.25H21.9445ZM32.4917 68.558V71.414H35.8517V72.716H32.4917V75.698H36.2717V77H30.8957V67.256H36.2717V68.558H32.4917ZM44.5235 67.27V68.572H41.9335V77H40.3375V68.572H37.7335V67.27H44.5235ZM53.9098 67.27V77H52.3138V72.744H47.7358V77H46.1398V67.27H47.7358V71.442H52.3138V67.27H53.9098Z" fill="#23262F"/>
<path d="M213.63 68.25V66.794H216.542V77H214.932V68.25H213.63ZM218.735 71.764C218.735 70.1493 219.005 68.8893 219.547 67.984C220.097 67.0693 221.04 66.612 222.375 66.612C223.709 66.612 224.647 67.0693 225.189 67.984C225.739 68.8893 226.015 70.1493 226.015 71.764C226.015 73.3973 225.739 74.676 225.189 75.6C224.647 76.5147 223.709 76.972 222.375 76.972C221.04 76.972 220.097 76.5147 219.547 75.6C219.005 74.676 218.735 73.3973 218.735 71.764ZM224.447 71.764C224.447 71.008 224.395 70.3687 224.293 69.846C224.199 69.3233 224.003 68.8987 223.705 68.572C223.406 68.236 222.963 68.068 222.375 68.068C221.787 68.068 221.343 68.236 221.045 68.572C220.746 68.8987 220.545 69.3233 220.443 69.846C220.349 70.3687 220.303 71.008 220.303 71.764C220.303 72.548 220.349 73.206 220.443 73.738C220.536 74.27 220.732 74.6993 221.031 75.026C221.339 75.3527 221.787 75.516 222.375 75.516C222.963 75.516 223.406 75.3527 223.705 75.026C224.013 74.6993 224.213 74.27 224.307 73.738C224.4 73.206 224.447 72.548 224.447 71.764ZM233.146 68.558V71.414H236.506V72.716H233.146V75.698H236.926V77H231.55V67.256H236.926V68.558H233.146ZM245.178 67.27V68.572H242.588V77H240.992V68.572H238.388V67.27H245.178ZM254.564 67.27V77H252.968V72.744H248.39V77H246.794V67.27H248.39V71.442H252.968V67.27H254.564Z" fill="#23262F"/>
<path d="M0 48C0 46.8879 0.887686 45.9792 1.99945 45.9531L248.002 40.1874C252.389 40.0846 256 43.6124 256 48V48C256 52.3876 252.389 55.9154 248.002 55.8126L1.99945 50.0469C0.887686 50.0208 0 49.1121 0 48V48Z" fill="#E6E8EC"/>
<mask id="mask0_21567_31893" style="mask-type:alpha" x="0" y="40" width="256" height="16">
<path d="M0 48C0 46.8879 0.887686 45.9792 1.99945 45.9531L248.002 40.1874C252.389 40.0846 256 43.6124 256 48V48C256 52.3876 252.389 55.9154 248.002 55.8126L1.99945 50.0469C0.887686 50.0208 0 49.1121 0 48V48Z" fill="#F4F5F6"/>
</mask>
<g mask="url(#mask0_21567_31893)">
<rect y="42" width="138.345" height="14" fill="#3772FF"/>
</g>
<rect x="111" width="49" height="28" rx="8" fill="#141416"/>
<path d="M125.516 10.704H121.628V12.756C121.796 12.548 122.036 12.38 122.348 12.252C122.66 12.116 122.992 12.048 123.344 12.048C123.984 12.048 124.508 12.188 124.916 12.468C125.324 12.748 125.62 13.108 125.804 13.548C125.988 13.98 126.08 14.444 126.08 14.94C126.08 15.86 125.816 16.6 125.288 17.16C124.768 17.72 124.024 18 123.056 18C122.144 18 121.416 17.772 120.872 17.316C120.328 16.86 120.02 16.264 119.948 15.528H121.58C121.652 15.848 121.812 16.104 122.06 16.296C122.316 16.488 122.64 16.584 123.032 16.584C123.504 16.584 123.86 16.436 124.1 16.14C124.34 15.844 124.46 15.452 124.46 14.964C124.46 14.468 124.336 14.092 124.088 13.836C123.848 13.572 123.492 13.44 123.02 13.44C122.684 13.44 122.404 13.524 122.18 13.692C121.956 13.86 121.796 14.084 121.7 14.364H120.092V9.228H125.516V10.704ZM132.09 10.98V13.08H134.91V14.412H132.09V16.632H135.27V18H130.41V9.612H135.27V10.98H132.09ZM142.497 9.624V10.98H140.265V18H138.585V10.98H136.353V9.624H142.497ZM150.671 9.624V18H148.991V14.436H145.403V18H143.723V9.624H145.403V13.068H148.991V9.624H150.671Z" fill="#FCFCFD"/>
<path d="M132.672 31.1716L129.5 28H141.5L138.328 31.1716C136.766 32.7337 134.234 32.7337 132.672 31.1716Z" fill="#141416"/>
<g filter="url(#filter0_d_21567_31893)">
<rect x="123.5" y="36" width="24" height="24" rx="12" fill="#3772FF"/>
<rect x="125.5" y="38" width="20" height="20" rx="10" stroke="#FCFCFD" stroke-width="4"/>
</g>
<defs>
<filter id="filter0_d_21567_31893" x="115.5" y="36" width="40" height="40" color-interpolation-filters="sRGB">
<feFlood flood-opacity="0" result="BackgroundImageFix"/>
<feColorMatrix in="SourceAlpha" values="0 0 0 0 0 0 0 0 0 0 0 0 0 0 0 0 0 0 127 0" result="hardAlpha"/>
<feMorphology radius="8" in="SourceAlpha" result="effect1_dropShadow_21567_31893"/>
<feOffset dy="8"/>
<feGaussianBlur stdDeviation="8"/>
<feColorMatrix values="0 0 0 0 0.0583333 0 0 0 0 0.0583333 0 0 0 0 0.0583333 0 0 0 0.2 0"/>
<feBlend mode="multiply" in2="BackgroundImageFix" result="effect1_dropShadow_21567_31893"/>
<feBlend in="SourceGraphic" in2="effect1_dropShadow_21567_31893" result="shape"/>
</filter>
</defs>
</svg>
