<svg width="10" height="10" viewBox="0 0 10 10" fill="none" xmlns="http://www.w3.org/2000/svg">
<path fill-rule="evenodd" clip-rule="evenodd" d="M0.528758 0.528514C0.789108 0.268165 1.21122 0.268165 1.47157 0.528514L5.00016 4.05711L8.52876 0.528514C8.78911 0.268165 9.21122 0.268165 9.47157 0.528514C9.73192 0.788864 9.73192 1.21097 9.47157 1.47132L5.94297 4.99992L9.47157 8.52851C9.73192 8.78886 9.73192 9.21097 9.47157 9.47132C9.21122 9.73167 8.78911 9.73167 8.52876 9.47132L5.00016 5.94273L1.47157 9.47132C1.21122 9.73167 0.789108 9.73167 0.528758 9.47132C0.268409 9.21097 0.268409 8.78886 0.528758 8.52851L4.05735 4.99992L0.528758 1.47132C0.268409 1.21097 0.268409 0.788864 0.528758 0.528514Z" fill="#FCFCFD"/>
</svg>
