<svg width="16" height="16" viewBox="0 0 16 16" fill="none" xmlns="http://www.w3.org/2000/svg">
<path d="M8.00016 1.33325C7.63197 1.33325 7.3335 1.63173 7.3335 1.99992V3.99992C7.3335 4.36811 7.63197 4.66659 8.00016 4.66659C8.36835 4.66659 8.66683 4.36811 8.66683 3.99992V1.99992C8.66683 1.63173 8.36835 1.33325 8.00016 1.33325Z" fill="#23262F"/>
<path d="M8.00016 11.3333C7.63197 11.3333 7.3335 11.6317 7.3335 11.9999V13.9999C7.3335 14.3681 7.63197 14.6666 8.00016 14.6666C8.36835 14.6666 8.66683 14.3681 8.66683 13.9999V11.9999C8.66683 11.6317 8.36835 11.3333 8.00016 11.3333Z" fill="#23262F"/>
<path d="M14.0002 7.33325C14.3684 7.33325 14.6668 7.63173 14.6668 7.99992C14.6668 8.36811 14.3684 8.66659 14.0002 8.66659H12.0002C11.632 8.66659 11.3335 8.36811 11.3335 7.99992C11.3335 7.63173 11.632 7.33325 12.0002 7.33325H14.0002Z" fill="#23262F"/>
<path d="M4.66683 7.99992C4.66683 7.63173 4.36835 7.33325 4.00016 7.33325H2.00016C1.63197 7.33325 1.3335 7.63173 1.3335 7.99992C1.3335 8.36811 1.63197 8.66659 2.00016 8.66659H4.00016C4.36835 8.66659 4.66683 8.36811 4.66683 7.99992Z" fill="#23262F"/>
<path d="M11.7714 3.28594C12.0318 3.02559 12.4539 3.02559 12.7142 3.28594C12.9746 3.54629 12.9746 3.9684 12.7142 4.22875L11.3 5.64296C11.0397 5.90331 10.6176 5.90331 10.3572 5.64296C10.0969 5.38261 10.0969 4.9605 10.3572 4.70015L11.7714 3.28594Z" fill="#23262F"/>
<path d="M5.64312 10.3569C5.38277 10.0966 4.96066 10.0966 4.70031 10.3569L3.28609 11.7711C3.02574 12.0315 3.02574 12.4536 3.28609 12.7139C3.54644 12.9743 3.96855 12.9743 4.2289 12.7139L5.64312 11.2997C5.90347 11.0394 5.90347 10.6173 5.64312 10.3569Z" fill="#23262F"/>
<path d="M12.7142 11.7712C12.9746 12.0315 12.9746 12.4536 12.7142 12.714C12.4539 12.9743 12.0318 12.9743 11.7714 12.714L10.3572 11.2998C10.0969 11.0394 10.0969 10.6173 10.3572 10.357C10.6176 10.0966 11.0397 10.0966 11.3 10.357L12.7142 11.7712Z" fill="#23262F"/>
<path d="M5.64318 5.64287C5.90353 5.38252 5.90353 4.96041 5.64318 4.70006L4.22897 3.28585C3.96862 3.0255 3.54651 3.0255 3.28616 3.28585C3.02581 3.5462 3.02581 3.96831 3.28616 4.22866L4.70037 5.64287C4.96072 5.90322 5.38283 5.90322 5.64318 5.64287Z" fill="#23262F"/>
</svg>
